<svg width="36" height="36" viewBox="0 0 36 36" fill="none" xmlns="http://www.w3.org/2000/svg">
<path d="M22.5 25.5V27C22.5 29.4853 20.4853 31.5 18 31.5C15.5147 31.5 13.5 29.4853 13.5 27V25.5M22.5 25.5H13.5M22.5 25.5H27.8858C28.4595 25.5 28.7478 25.5 28.9801 25.4216C29.4239 25.2719 29.7712 24.9235 29.9209 24.4797C29.9996 24.2464 29.9996 23.9572 29.9996 23.3789C29.9996 23.1258 29.9993 22.9993 29.9795 22.8787C29.9421 22.6507 29.8536 22.4345 29.7188 22.2468C29.6476 22.1477 29.5571 22.0572 29.3787 21.8787L28.7944 21.2944C28.6059 21.1059 28.5 20.8502 28.5 20.5836V15C28.5 9.201 23.799 4.49999 18 4.5C12.201 4.50001 7.5 9.20102 7.5 15V20.5836C7.5 20.8503 7.39387 21.1059 7.20535 21.2944L6.62109 21.8787C6.44214 22.0576 6.35256 22.1476 6.28125 22.2469C6.14648 22.4346 6.05722 22.6507 6.0198 22.8787C6 22.9993 6 23.1259 6 23.3789C6 23.9573 6 24.2464 6.07868 24.4796C6.22838 24.9234 6.5772 25.2719 7.021 25.4216C7.25334 25.5 7.54052 25.5 8.11433 25.5H13.5" stroke="black" stroke-width="2" stroke-linecap="round" stroke-linejoin="round"/>
</svg>
