<svg width="36" height="36" viewBox="0 0 36 36" fill="none" xmlns="http://www.w3.org/2000/svg">
<path d="M4.50008 27.0001C4.5 26.9032 4.5 26.8034 4.5 26.7003V9.30029C4.5 7.62014 4.5 6.77943 4.82698 6.1377C5.1146 5.57321 5.57321 5.1146 6.1377 4.82698C6.77943 4.5 7.62014 4.5 9.30029 4.5H26.7003C28.3805 4.5 29.2201 4.5 29.8618 4.82698C30.4263 5.1146 30.8857 5.57321 31.1733 6.1377C31.5 6.7788 31.5 7.61849 31.5 9.29537V26.7046C31.5 27.4322 31.5 28.0019 31.4733 28.4661M4.50008 27.0001C4.50123 28.4826 4.52006 29.2587 4.82698 29.8611C5.1146 30.4256 5.57321 30.8857 6.1377 31.1733C6.7788 31.5 7.61849 31.5 9.29537 31.5H26.7054C28.3822 31.5 29.2207 31.5 29.8618 31.1733C30.4263 30.8857 30.8857 30.4256 31.1733 29.8611C31.3583 29.4981 31.4385 29.0719 31.4733 28.4661M4.50008 27.0001L11.652 18.6562L11.6541 18.6539C12.2884 17.9139 12.6061 17.5433 12.9829 17.4097C13.3139 17.2923 13.6753 17.2951 14.0046 17.417C14.38 17.5559 14.6926 17.9308 15.3179 18.6812L19.3246 23.4893C19.9034 24.1838 20.1945 24.5331 20.5479 24.6733C20.8597 24.797 21.2035 24.8109 21.5251 24.716C21.8913 24.6079 22.2136 24.2857 22.8582 23.6411L23.6038 22.8955C24.26 22.2393 24.5881 21.9114 24.9595 21.8042C25.2857 21.7101 25.6344 21.7303 25.9482 21.8599C26.3055 22.0074 26.5953 22.3686 27.175 23.0933L31.4733 28.4661M31.4733 28.4661L31.5 28.4994M22.5 13.5C21.6716 13.5 21 12.8284 21 12C21 11.1716 21.6716 10.5 22.5 10.5C23.3284 10.5 24 11.1716 24 12C24 12.8284 23.3284 13.5 22.5 13.5Z" stroke="black" stroke-width="3" stroke-linecap="round" stroke-linejoin="round"/>
</svg>
