<svg width="36" height="36" viewBox="0 0 36 36" fill="none" xmlns="http://www.w3.org/2000/svg">
<path d="M3.75 16.4076C3.75 14.5713 4.59087 12.8362 6.03213 11.6983L14.2821 5.18516C16.462 3.46422 19.538 3.46422 21.7179 5.18516L29.9679 11.6983C31.4091 12.8362 32.25 14.5713 32.25 16.4076V26.25C32.25 29.5637 29.5637 32.25 26.25 32.25H24C23.1716 32.25 22.5 31.5784 22.5 30.75V26.25C22.5 24.5931 21.1569 23.25 19.5 23.25H16.5C14.8431 23.25 13.5 24.5931 13.5 26.25V30.75C13.5 31.5784 12.8284 32.25 12 32.25H9.75C6.43629 32.25 3.75 29.5637 3.75 26.25L3.75 16.4076Z" stroke="black" stroke-width="3"/>
</svg>
