<svg width="171" height="216" viewBox="0 0 171 216" fill="none" xmlns="http://www.w3.org/2000/svg">
<path d="M42.35 102.43C42.8912 102.43 43.33 101.991 43.33 101.45C43.33 100.909 42.8912 100.47 42.35 100.47C41.8088 100.47 41.37 100.909 41.37 101.45C41.37 101.991 41.8088 102.43 42.35 102.43Z" fill="#4A5059"/>
<path d="M105.9 61.5C97.5301 61.5 89.0101 61.16 81.0401 58.94C73.0701 56.72 66.0401 52.56 59.6401 47.69C55.4501 44.52 51.6401 41.99 46.1901 42.37C40.8716 42.6601 35.7861 44.6473 31.6801 48.04C24.7501 54.1 25.8001 65.31 28.5701 73.19C32.7301 85.06 45.3901 93.31 56.1501 98.68C68.5801 104.89 82.2301 108.5 95.9301 110.57C107.93 112.4 123.35 113.72 133.75 105.88C143.3 98.68 145.92 82.24 143.58 71.14C143.012 67.8609 141.266 64.9021 138.67 62.82C131.96 57.91 121.95 61.19 114.41 61.35C111.61 61.39 108.76 61.5 105.9 61.5Z" fill="#272933"/>
<path d="M88.4701 111.79C94.7053 111.79 99.7601 106.735 99.7601 100.5C99.7601 94.2647 94.7053 89.21 88.4701 89.21C82.2348 89.21 77.1801 94.2647 77.1801 100.5C77.1801 106.735 82.2348 111.79 88.4701 111.79Z" fill="#4A5059"/>
<path d="M76.7889 30.0217C78.0496 29.7406 79.3702 29.9718 80.4604 30.6644C81.5506 31.3571 82.321 32.4544 82.6021 33.7151L84.4062 41.8064L74.8997 43.9261L73.0955 35.8348C72.8144 34.5742 73.0456 33.2535 73.7383 32.1633C74.4309 31.0731 75.5283 30.3028 76.7889 30.0217Z" fill="#2D333E" stroke="#4A5059" stroke-miterlimit="10"/>
<path d="M121.31 93.5L63.42 106.4C63.0604 106.481 62.686 106.466 62.3337 106.358C61.9814 106.25 61.6634 106.052 61.411 105.783C61.1586 105.515 60.9806 105.185 60.8945 104.827C60.8084 104.468 60.8172 104.094 60.92 103.74L61.16 102.91C63.16 95.82 64.9 88.01 63.3 80.81L59.88 65.44C57 52.5 64.74 39.38 77.58 36.2C80.7115 35.4257 83.9663 35.2851 87.153 35.7863C90.3397 36.2876 93.3941 37.4207 96.1367 39.119C98.8793 40.8173 101.255 43.0466 103.124 45.6759C104.993 48.3052 106.317 51.2815 107.02 54.43L110.55 70.26C112.16 77.46 117.02 83.82 121.88 89.36L122.45 90.01C122.695 90.2881 122.864 90.6254 122.939 90.9886C123.014 91.3518 122.993 91.7284 122.878 92.0809C122.763 92.4335 122.557 92.7499 122.282 92.9988C122.007 93.2477 121.672 93.4204 121.31 93.5Z" fill="#2D333E" stroke="#4A5059" stroke-miterlimit="10"/>
<path d="M78.5 83.59C78.4842 81.2543 79.2689 78.9837 80.7235 77.1562C82.1782 75.3287 84.2149 74.0546 86.4946 73.546C88.7743 73.0375 91.1594 73.3252 93.2528 74.3612C95.3463 75.3972 97.0216 77.119 98 79.24" stroke="#4A5059" stroke-linecap="round" stroke-linejoin="round"/>
<path d="M96.3501 67.36C97.1343 67.36 97.7701 66.7243 97.7701 65.94C97.7701 65.1558 97.1343 64.52 96.3501 64.52C95.5658 64.52 94.9301 65.1558 94.9301 65.94C94.9301 66.7243 95.5658 67.36 96.3501 67.36Z" fill="#4A5059"/>
<path d="M74.33 72.27C75.1143 72.27 75.75 71.6342 75.75 70.85C75.75 70.0657 75.1143 69.43 74.33 69.43C73.5458 69.43 72.91 70.0657 72.91 70.85C72.91 71.6342 73.5458 72.27 74.33 72.27Z" fill="#4A5059"/>
<path d="M100.81 28.51C101.351 28.51 101.79 28.0712 101.79 27.53C101.79 26.9888 101.351 26.55 100.81 26.55C100.269 26.55 99.83 26.9888 99.83 27.53C99.83 28.0712 100.269 28.51 100.81 28.51Z" fill="#4A5059"/>
<path d="M42.35 102.43C42.8912 102.43 43.33 101.991 43.33 101.45C43.33 100.909 42.8912 100.47 42.35 100.47C41.8088 100.47 41.37 100.909 41.37 101.45C41.37 101.991 41.8088 102.43 42.35 102.43Z" fill="#4A5059"/>
<path d="M127.89 51.2V55.5" stroke="#4A5059" stroke-linecap="round" stroke-linejoin="round"/>
<path d="M125.73 53.35H130.04" stroke="#4A5059" stroke-linecap="round" stroke-linejoin="round"/>
<path d="M129.85 115.94V120.24" stroke="#4A5059" stroke-linecap="round" stroke-linejoin="round"/>
<path d="M127.7 118.09H132" stroke="#4A5059" stroke-linecap="round" stroke-linejoin="round"/>
<path d="M54.67 34.9V39.2" stroke="#4A5059" stroke-linecap="round" stroke-linejoin="round"/>
<path d="M52.52 37.05H56.82" stroke="#4A5059" stroke-linecap="round" stroke-linejoin="round"/>
<path d="M85.82 130.01C106.094 130.01 122.53 128.985 122.53 127.72C122.53 126.455 106.094 125.43 85.82 125.43C65.5456 125.43 49.11 126.455 49.11 127.72C49.11 128.985 65.5456 130.01 85.82 130.01Z" fill="#272933"/>
<path d="M120.89 48.76C120.887 51.8012 119.678 54.7171 117.528 56.8676C115.377 59.018 112.461 60.2273 109.42 60.23C109.046 60.2302 108.672 60.2102 108.3 60.17L104.9 65.72L103.84 58.77C102.066 57.7934 100.581 56.3644 99.5382 54.6282C98.4951 52.892 97.9303 50.9106 97.9013 48.8854C97.8723 46.8601 98.3801 44.8633 99.3731 43.098C100.366 41.3326 101.809 39.8617 103.555 38.8348C105.3 37.8078 107.287 37.2615 109.312 37.2513C111.338 37.2411 113.33 37.7674 115.086 38.7768C116.842 39.7861 118.299 41.2424 119.31 42.9977C120.321 44.753 120.849 46.7446 120.84 48.77L120.89 48.76Z" fill="#2D333E" stroke="#4A5059" stroke-miterlimit="10"/>
<path d="M104.52 49.92C105.161 49.92 105.68 49.4006 105.68 48.76C105.68 48.1193 105.161 47.6 104.52 47.6C103.879 47.6 103.36 48.1193 103.36 48.76C103.36 49.4006 103.879 49.92 104.52 49.92Z" fill="#4A5059"/>
<path d="M109.42 49.92C110.061 49.92 110.58 49.4006 110.58 48.76C110.58 48.1193 110.061 47.6 109.42 47.6C108.779 47.6 108.26 48.1193 108.26 48.76C108.26 49.4006 108.779 49.92 109.42 49.92Z" fill="#4A5059"/>
<path d="M114.32 49.92C114.961 49.92 115.48 49.4006 115.48 48.76C115.48 48.1193 114.961 47.6 114.32 47.6C113.679 47.6 113.16 48.1193 113.16 48.76C113.16 49.4006 113.679 49.92 114.32 49.92Z" fill="#4A5059"/>
</svg>
