<svg width="171" height="216" viewBox="0 0 171 216" fill="none" xmlns="http://www.w3.org/2000/svg">
<g clip-path="url(#clip0_1_1481)">
<path d="M104.18 58.63C95.82 58.63 87.32 58.3 79.36 56.08C71.4 53.86 64.42 49.71 58 44.85C53.81 41.68 50 39.17 44.57 39.55C39.2572 39.8302 34.1762 41.815 30.08 45.21C23.17 51.21 24.22 62.44 26.98 70.31C31.13 82.16 43.77 90.39 54.51 95.76C66.92 101.96 80.51 105.56 94.22 107.63C106.22 109.45 121.59 110.77 131.97 102.95C141.51 95.76 144.13 79.35 141.79 68.26C141.223 64.9856 139.481 62.0306 136.89 59.95C130.19 55.06 120.2 58.33 112.67 58.49C109.87 58.55 107 58.62 104.18 58.63Z" fill="#F2F2F2"/>
<path d="M130.45 83.3V87.6" stroke="#BABABA" stroke-linecap="round" stroke-linejoin="round"/>
<path d="M128.3 85.45H132.6" stroke="#BABABA" stroke-linecap="round" stroke-linejoin="round"/>
<path d="M55.22 58.9V63.2" stroke="#BABABA" stroke-linecap="round" stroke-linejoin="round"/>
<path d="M53.0701 61.05H57.3701" stroke="#BABABA" stroke-linecap="round" stroke-linejoin="round"/>
<path d="M81.8201 40.65C82.3613 40.65 82.8001 40.2112 82.8001 39.67C82.8001 39.1288 82.3613 38.69 81.8201 38.69C81.2789 38.69 80.8401 39.1288 80.8401 39.67C80.8401 40.2112 81.2789 40.65 81.8201 40.65Z" fill="#CFCFCF"/>
<path d="M45.28 36.55C45.8213 36.55 46.26 36.1113 46.26 35.57C46.26 35.0288 45.8213 34.59 45.28 34.59C44.7388 34.59 44.3 35.0288 44.3 35.57C44.3 36.1113 44.7388 36.55 45.28 36.55Z" fill="#CFCFCF"/>
<path d="M87.92 127.04C108.161 127.04 124.57 126.019 124.57 124.76C124.57 123.501 108.161 122.48 87.92 122.48C67.6788 122.48 51.27 123.501 51.27 124.76C51.27 126.019 67.6788 127.04 87.92 127.04Z" fill="#F2F2F2"/>
<path d="M72.83 61.4H69.02V87.74H72.83V61.4Z" fill="#D2D2D2"/>
<path d="M68.9447 63.3184L70.7598 66.6683L92.7846 54.7347L90.9695 51.3848L68.9447 63.3184Z" fill="#D2D2D2"/>
<path d="M67.8001 85.46H73.6301C76.6032 85.46 79.4545 86.6411 81.5568 88.7434C83.659 90.8456 84.8401 93.6969 84.8401 96.67V97.49H56.5901V96.67C56.5901 93.6969 57.7711 90.8456 59.8734 88.7434C61.9757 86.6411 64.827 85.46 67.8001 85.46Z" fill="white" stroke="#BABABA" stroke-linecap="round" stroke-linejoin="round"/>
<path d="M88.69 97.62H52.74" stroke="#BABABA" stroke-linecap="round" stroke-linejoin="round"/>
<path d="M71.16 71.1C74.8107 71.1 77.77 68.1406 77.77 64.49C77.77 60.8394 74.8107 57.88 71.16 57.88C67.5094 57.88 64.55 60.8394 64.55 64.49C64.55 68.1406 67.5094 71.1 71.16 71.1Z" fill="white" stroke="#BABABA" stroke-linecap="round" stroke-linejoin="round"/>
<path d="M107.93 89.68C107.76 89.62 106.48 89.74 106.32 89.68C105.17 89.25 104.76 90.68 103.7 90.09C96.9488 86.6157 91.7023 80.7909 88.9502 73.7144C86.1982 66.638 86.1309 58.799 88.761 51.6763C91.3911 44.5536 96.5368 38.6396 103.227 35.0499C109.918 31.4602 117.691 30.4429 125.08 32.19C126.342 32.4951 127.584 32.8758 128.8 33.33C129.03 33.41 128.47 34.65 128.69 34.73L107.93 89.68Z" fill="white" stroke="#BABABA" stroke-linecap="round" stroke-linejoin="round"/>
<path d="M127.82 66C123 78.91 115.88 88.73 110.11 91.25C109.338 91.6142 108.503 91.828 107.65 91.88C107.005 91.9234 106.358 91.8314 105.75 91.61C105.272 91.4322 104.828 91.1715 104.44 90.84C104.221 90.6641 104.02 90.4664 103.84 90.25C99.8401 85.68 100.49 72.25 105.84 57.85C111.14 43.67 119.26 33.18 125.27 32.1C125.642 32.0234 126.021 31.9898 126.4 32C126.909 32.0108 127.412 32.1054 127.89 32.28C128.572 32.5402 129.185 32.9543 129.68 33.49C130.215 34.0592 130.66 34.7067 131 35.41C133.69 41.1 132.62 53.18 127.82 66Z" fill="#D2D2D2"/>
<path d="M106.43 57.24L137.67 68.65" stroke="#BABABA" stroke-linecap="round" stroke-linejoin="round"/>
<path d="M135.87 72.1C138.278 72.1 140.23 70.148 140.23 67.74C140.23 65.332 138.278 63.38 135.87 63.38C133.462 63.38 131.51 65.332 131.51 67.74C131.51 70.148 133.462 72.1 135.87 72.1Z" fill="white" stroke="#BABABA" stroke-linecap="round" stroke-linejoin="round"/>
<path d="M62.8399 44.55C62.8399 45.0998 62.7314 45.6441 62.5207 46.1519C62.3101 46.6597 62.0013 47.121 61.6121 47.5092C61.2228 47.8975 60.7609 48.2052 60.2526 48.4147C59.7443 48.6242 59.1996 48.7313 58.6499 48.73H48.3799C47.5842 48.73 46.8212 48.4139 46.2586 47.8513C45.696 47.2887 45.3799 46.5256 45.3799 45.73C45.3799 44.9343 45.696 44.1713 46.2586 43.6087C46.8212 43.0461 47.5842 42.73 48.3799 42.73C48.7736 42.7306 49.1637 42.8052 49.5299 42.95C49.4896 42.7559 49.4695 42.5582 49.4699 42.36C49.477 41.5802 49.7642 40.829 50.2792 40.2433C50.7941 39.6577 51.5025 39.2768 52.275 39.1701C53.0475 39.0634 53.8326 39.238 54.487 39.662C55.1415 40.0861 55.6216 40.7313 55.8399 41.48C56.601 40.7668 57.6069 40.373 58.6499 40.38C59.1988 40.3787 59.7426 40.4855 60.2503 40.6943C60.7579 40.9032 61.2194 41.21 61.6085 41.5972C61.9976 41.9844 62.3066 42.4445 62.5179 42.9511C62.7292 43.4578 62.8386 44.0011 62.8399 44.55Z" fill="white" stroke="#BABABA" stroke-linecap="round" stroke-linejoin="round"/>
</g>
<defs>
<clipPath id="clip0_1_1481">
<rect width="170.35" height="215.38" fill="white"/>
</clipPath>
</defs>
</svg>
