<svg width="171" height="215" viewBox="0 0 171 215" fill="none" xmlns="http://www.w3.org/2000/svg">
<path d="M140.34 83.16V87.45" stroke="#4A5059" stroke-linecap="round" stroke-linejoin="round"/>
<path d="M138.19 85.3H142.49" stroke="#4A5059" stroke-linecap="round" stroke-linejoin="round"/>
<path d="M105.44 58C97.07 58 88.57 57.66 80.62 55.45C72.67 53.24 65.68 49.05 59.25 44.18C55.07 41.02 51.25 38.5 45.83 38.88C40.5172 39.1603 35.4361 41.145 31.34 44.54C24.43 50.59 25.47 61.77 28.23 69.64C32.39 81.49 45 89.73 55.77 95.09C68.18 101.29 81.77 104.89 95.48 106.96C107.48 108.78 122.85 110.1 133.23 102.28C142.77 95.09 145.38 78.68 143.05 67.6C142.483 64.3235 140.736 61.3677 138.14 59.29C131.44 54.39 121.45 57.66 113.93 57.82C111.13 57.89 108.29 58 105.44 58Z" fill="#272933"/>
<path d="M131.7 82.64V86.93" stroke="#4A5059" stroke-linecap="round" stroke-linejoin="round"/>
<path d="M129.56 84.78H133.85" stroke="#4A5059" stroke-linecap="round" stroke-linejoin="round"/>
<path d="M56.48 58.23V62.53" stroke="#4A5059" stroke-linecap="round" stroke-linejoin="round"/>
<path d="M54.33 60.38H58.62" stroke="#4A5059" stroke-linecap="round" stroke-linejoin="round"/>
<path d="M83.08 39.98C83.6212 39.98 84.06 39.5413 84.06 39C84.06 38.4588 83.6212 38.02 83.08 38.02C82.5387 38.02 82.1 38.4588 82.1 39C82.1 39.5413 82.5387 39.98 83.08 39.98Z" fill="#4A5059"/>
<path d="M46.53 35.88C47.0713 35.88 47.51 35.4412 47.51 34.9C47.51 34.3587 47.0713 33.92 46.53 33.92C45.9888 33.92 45.55 34.3587 45.55 34.9C45.55 35.4412 45.9888 35.88 46.53 35.88Z" fill="#4A5059"/>
<path d="M89.17 126.38C109.411 126.38 125.82 125.359 125.82 124.1C125.82 122.841 109.411 121.82 89.17 121.82C68.9288 121.82 52.52 122.841 52.52 124.1C52.52 125.359 68.9288 126.38 89.17 126.38Z" fill="#272933"/>
<path d="M74.09 60.73H70.28V87.07H74.09V60.73Z" fill="#2D333E" stroke="#4A5059" stroke-miterlimit="10"/>
<path d="M70.2041 62.645L72.0192 65.9949L94.044 54.0613L92.2289 50.7114L70.2041 62.645Z" fill="#2D333E" stroke="#4A5059" stroke-miterlimit="10"/>
<path d="M69.06 84.8H74.89C77.8613 84.8 80.7111 85.9797 82.8131 88.0798C84.9151 90.1799 86.0973 93.0286 86.1 96V96.82H57.85V96C57.8526 93.0286 59.0348 90.1799 61.1368 88.0798C63.2388 85.9797 66.0886 84.8 69.06 84.8Z" fill="#2D333E" stroke="#4A5059" stroke-miterlimit="10"/>
<path d="M89.95 96.95H54" stroke="#4A5059" stroke-miterlimit="10"/>
<path d="M72.41 70.43C76.0607 70.43 79.02 67.4706 79.02 63.82C79.02 60.1694 76.0607 57.21 72.41 57.21C68.7594 57.21 65.8 60.1694 65.8 63.82C65.8 67.4706 68.7594 70.43 72.41 70.43Z" fill="#2D333E" stroke="#4A5059" stroke-miterlimit="10"/>
<path d="M109.18 89C109.02 88.95 107.74 89.06 107.57 89C106.42 88.57 106.02 90 104.95 89.42C97.893 85.7954 92.4886 79.6102 89.8433 72.1308C87.1981 64.6514 87.5122 56.4436 90.7213 49.1883C93.9305 41.9329 99.7918 36.1788 107.105 33.1042C114.419 30.0296 122.631 29.8671 130.06 32.65C130.28 32.74 129.72 33.97 129.94 34.06L109.18 89Z" fill="#4A5059" stroke="#4A5059" stroke-miterlimit="10"/>
<path d="M129.07 65.38C124.26 78.24 117.14 88.06 111.37 90.59C110.594 90.9451 109.761 91.1585 108.91 91.22C108.261 91.2593 107.611 91.1639 107 90.94C106.528 90.7595 106.089 90.5027 105.7 90.18C105.482 89.9955 105.278 89.7949 105.09 89.58C101.09 85.02 101.75 71.58 107.09 57.18C112.39 43 120.5 32.51 126.52 31.43C126.893 31.3607 127.271 31.3306 127.65 31.34C128.158 31.3485 128.661 31.4397 129.14 31.61C129.85 31.8537 130.489 32.2694 131 32.82C131.529 33.3872 131.958 34.0397 132.27 34.75C135 40.43 133.88 52.52 129.07 65.38Z" fill="#2D333E" stroke="#4A5059" stroke-miterlimit="10"/>
<path d="M107.68 56.57L138.93 67.98" stroke="#4A5059" stroke-miterlimit="10"/>
<path d="M137 71.59C139.408 71.59 141.36 69.638 141.36 67.23C141.36 64.822 139.408 62.87 137 62.87C134.592 62.87 132.64 64.822 132.64 67.23C132.64 69.638 134.592 71.59 137 71.59Z" fill="#4A5059" stroke="#4A5059" stroke-miterlimit="10"/>
<path d="M64.1 43.88C64.0974 44.9896 63.6548 46.0527 62.8693 46.8363C62.0838 47.62 61.0195 48.06 59.91 48.06H49.64C48.8444 48.06 48.0813 47.744 47.5187 47.1813C46.9561 46.6187 46.64 45.8557 46.64 45.06C46.64 44.2644 46.9561 43.5013 47.5187 42.9387C48.0813 42.3761 48.8444 42.06 49.64 42.06C50.0305 42.0604 50.4174 42.1351 50.78 42.28C50.7435 42.0889 50.7268 41.8946 50.73 41.7C50.726 40.9157 51.0067 40.1565 51.5199 39.5634C52.0332 38.9703 52.7442 38.5835 53.521 38.4748C54.2977 38.3661 55.0876 38.5428 55.7439 38.9723C56.4003 39.4017 56.8786 40.0547 57.09 40.81C57.8558 40.098 58.8643 39.7046 59.91 39.71C61.017 39.7126 62.0782 40.1522 62.8629 40.9331C63.6475 41.714 64.0921 42.7731 64.1 43.88Z" fill="#4A5059" stroke="#4A5059" stroke-miterlimit="10"/>
</svg>
